<?xml version="1.0" standalone="no"?>
<!DOCTYPE svg PUBLIC "-//W3C//DTD SVG 20010904//EN"
 "http://www.w3.org/TR/2001/REC-SVG-20010904/DTD/svg10.dtd">
<svg version="1.0" xmlns="http://www.w3.org/2000/svg"
 width="138.000000pt" height="154.000000pt" viewBox="0 0 138.000000 154.000000"
 preserveAspectRatio="xMidYMid meet">
<metadata>
Created by potrace 1.16, written by Peter Selinger 2001-2019
</metadata>
<g transform="translate(0.000000,154.000000) scale(0.100000,-0.100000)"
fill="#000000" stroke="none">
<path d="M464 1515 c-12 -18 -15 -39 -12 -74 l5 -48 -34 33 c-68 68 -157 33
-155 -61 0 -50 24 -96 86 -163 30 -32 36 -46 28 -54 -7 -7 -12 -39 -12 -73 0
-71 20 -216 31 -229 11 -12 27 33 43 118 11 55 19 73 40 89 15 11 26 28 26 42
l0 23 53 -20 c80 -31 197 -21 310 27 12 5 17 3 17 -7 0 -8 13 -34 30 -56 25
-36 30 -51 30 -102 0 -52 23 -130 35 -118 2 1 13 40 24 85 22 86 28 188 11
198 -5 3 -10 15 -10 26 0 14 7 19 29 19 15 0 42 5 60 11 24 9 31 16 29 33 -3
18 -10 21 -44 21 l-42 0 19 24 c11 13 19 32 19 42 0 28 -54 26 -74 -2 -15 -21
-15 -21 -43 -2 -15 11 -60 32 -99 47 -77 29 -103 52 -124 106 -20 51 -29 60
-66 60 -37 0 -64 -28 -64 -70 -1 -20 -5 -16 -25 25 -14 27 -32 56 -42 62 -27
21 -61 15 -79 -12z"/>
</g>
</svg>
